<svg xmlns="http://www.w3.org/2000/svg" version="1.1" xmlns:xlink="http://www.w3.org/1999/xlink" xmlns:svgjs="http://svgjs.dev/svgjs" width="2000" height="1247" viewBox="0 0 2000 1247"><g transform="matrix(1,0,0,1,-1.2121212121212466,0.5048582995951847)"><svg viewBox="0 0 396 247" data-background-color="#ffffff" preserveAspectRatio="xMidYMid meet" height="1247" width="2000" xmlns="http://www.w3.org/2000/svg" xmlns:xlink="http://www.w3.org/1999/xlink"><g id="tight-bounds" transform="matrix(1,0,0,1,0.2400000000000091,-0.09999999999999432)"><svg viewBox="0 0 395.52 247.2" height="247.2" width="395.52"><g><svg></svg></g><g><svg viewBox="0 0 395.52 247.2" height="247.2" width="395.52"><g transform="matrix(1,0,0,1,75.54432,66.07221527272725)"><svg viewBox="0 0 244.43135999999998 115.05556945454548" height="115.05556945454548" width="244.43135999999998"><g><svg viewBox="0 0 244.43135999999998 115.05556945454548" height="115.05556945454548" width="244.43135999999998"><g><svg viewBox="0 0 244.43135999999998 115.05556945454548" height="115.05556945454548" width="244.43135999999998"><g><svg viewBox="0 0 244.43135999999998 115.05556945454548" height="115.05556945454548" width="244.43135999999998"><g id="textblocktransform"><svg viewBox="0 0 244.43135999999998 115.05556945454548" height="115.05556945454548" width="244.43135999999998" id="textblock"><g><svg viewBox="0 0 244.43135999999998 115.05556945454548" height="115.05556945454548" width="244.43135999999998"><g transform="matrix(1,0,0,1,0,0)"><svg width="244.43135999999998" viewBox="0 -34.95000076293945 74.25 34.95000076293945" height="115.05556945454548" data-palette-color="#4790fc"><path d="M10.75-2.15L34.2-2.15 34.2 0 0 0 0-2.15 4.85-2.15 4.85-34.95 16.85-34.95Q24.8-34.95 28.45-31.9 32.1-28.85 32.1-22.5 32.1-16.15 28.38-13.2 24.65-10.25 16.95-10.25L16.95-10.25 10.75-10.25 10.75-2.15ZM17.6-15.6Q22.5-15.6 24.28-17.48 26.05-19.35 26.05-22.98 26.05-26.6 23.8-28.1 21.55-29.6 16.75-29.6L16.75-29.6 10.75-29.6 10.75-15.6 17.6-15.6ZM68.45-2.15L74.25-2.15 74.25 0 63.1 0 59.6-7.95 42.1-7.95 38.6 0 27.45 0 27.45-2.15 33.25-2.15 47.7-34.95 54-34.95 68.45-2.15ZM44.5-13.4L57.2-13.4 50.85-27.8 44.5-13.4Z" opacity="1" transform="matrix(1,0,0,1,0,0)" fill="#4790fc" class="wordmark-text-0" data-fill-palette-color="primary" id="text-0"></path></svg></g></svg></g></svg></g></svg></g></svg></g></svg></g></svg></g><g><path d="M245.816 0c68.262 0 123.6 55.338 123.6 123.6 0 68.262-55.338 123.6-123.6 123.6-41.792 0-78.739-20.741-101.109-52.491l6.417 0c21.606 28.726 55.98 47.303 94.692 47.303 65.397 0 118.412-53.015 118.412-118.412 0-65.397-53.015-118.412-118.412-118.412-38.713 0-73.086 18.577-94.692 47.303l-6.417 0c22.37-31.75 59.318-52.491 101.109-52.491z" fill="#4790fc" stroke="transparent" data-fill-palette-color="tertiary"></path></g></svg></g><defs></defs></svg><rect width="395.52" height="247.2" fill="none" stroke="none" visibility="hidden"></rect></g></svg></g></svg>